<?xml version="1.0" encoding="UTF-8"?>
<svg version="1.2" baseProfile="tiny-ps" xmlns="http://www.w3.org/2000/svg" viewBox="0 0 192 192">
<title>Qyara</title>
<desc>Qyara AI Chatbot Platform Logo</desc>
<path d="M0 0 C63.36 0 126.72 0 192 0 C192 63.36 192 126.72 192 192 C128.64 192 65.28 192 0 192 C0 128.64 0 65.28 0 0 Z " fill="#219CEE" transform="translate(0,0)"/>
<path d="M0 0 C0.77085938 0.2784375 1.54171875 0.556875 2.3359375 0.84375 C13.99080569 5.45796403 23.53784059 14.76851018 29.5 25.6875 C36.22111224 42.69339113 33.72479183 65.34705717 26.88085938 81.99609375 C19.44908053 98.90297865 6.37959125 111.70940689 -10 120 C-10.66 120 -11.32 120 -12 120 C-12 120.66 -12 121.32 -12 122 C-11.195625 122.4021875 -11.195625 122.4021875 -10.375 122.8125 C-8.65815175 123.67092412 -6.97327208 124.59430854 -5.31201172 125.5559082 C-1.47709491 127.22799526 1.19774482 127.34465606 5.3671875 127.29296875 C6.04677521 127.28872391 6.72636292 127.28447906 7.42654419 127.28010559 C9.57644924 127.26344266 11.72538299 127.22581716 13.875 127.1875 C15.3411322 127.172437 16.80727924 127.15875143 18.2734375 127.14648438 C21.84926875 127.1135808 25.42453941 127.06188663 29 127 C28.37571903 131.39200025 27.27759516 133.1300233 23.6796875 135.8671875 C13.96288424 142.42038039 1.42801886 142.25327975 -9.86328125 140.57421875 C-16.28573771 138.71478642 -22.15929205 134.31914298 -26.484375 129.265625 C-27.93857439 127.79409154 -27.93857439 127.79409154 -30.0859375 127.890625 C-30.84132812 128.00921875 -31.59671875 128.1278125 -32.375 128.25 C-33.12523437 128.35828125 -33.87546875 128.4665625 -34.6484375 128.578125 C-36.20846873 128.85799771 -37.76314596 129.1696776 -39.31030273 129.51367188 C-44.07079417 130.37442334 -48.86194892 130.22647507 -53.6875 130.25 C-55.24500977 130.2809375 -55.24500977 130.2809375 -56.83398438 130.3125 C-66.10805427 130.35901571 -74.63937658 129.02232825 -82 123 C-87.2355428 117.61343193 -90.27940175 113.45757816 -90.5625 105.75 C-90.48249492 100.99769828 -90.05435494 98.13194755 -87 94.4375 C-78.67114066 86.42963118 -69.4790788 85.53247408 -58.40625 85.72265625 C-45.60207525 86.27541379 -35.49848167 92.84778897 -27 102 C-14.86735118 97.71788865 -6.77187431 88.207768 -0.75 77.1875 C5.29282265 63.88789479 8.11008062 47.14529564 3 33 C-0.39247355 25.95055497 -5.14199285 21.65760381 -12 18 C-20.32456097 15.22514634 -31.49174974 16.11420252 -39.47265625 19.55859375 C-49.14928686 25.07741399 -55.41558441 33.18391801 -58.55566406 43.89550781 C-59.36004158 47.70525186 -59.18455873 51.55795904 -59.1875 55.4375 C-59.20586914 56.7069043 -59.20586914 56.7069043 -59.22460938 58.00195312 C-59.23521307 62.51559193 -58.96806465 65.85630139 -57 70 C-56.8125 73.25 -56.8125 73.25 -57 76 C-57.33 76.33 -57.66 76.66 -58 77 C-63.48264013 76.8903472 -66.53573869 75.44903417 -70.42578125 71.8125 C-77.97152937 63.12459149 -77.73640032 51.91139392 -77 41 C-74.99255775 27.24823024 -68.171093 16.89854573 -57.6171875 7.98828125 C-41.71092845 -3.80076284 -18.65425803 -7.43606162 0 0 Z " fill="#FBFDFE" transform="translate(125,27)"/>
<path d="M0 0 C4.05107904 1.95488116 6.53132021 3.18760532 9.0625 6.984375 C5.08128985 8.97498008 0.06476891 8.21312612 -4.3125 8.234375 C-5.36695312 8.255 -6.42140625 8.275625 -7.5078125 8.296875 C-8.52359375 8.30203125 -9.539375 8.3071875 -10.5859375 8.3125 C-11.98078369 8.32651855 -11.98078369 8.32651855 -13.40380859 8.34082031 C-16.36220043 7.9246272 -17.7297875 6.94549165 -19.9375 4.984375 C-19.6875 3.109375 -19.6875 3.109375 -18.9375 0.984375 C-13.45486197 -2.59070924 -5.97014079 -2.06414442 0 0 Z " fill="#2DA1EE" transform="translate(73.9375,129.015625)"/>
</svg>
